<svg width="24" height="24" viewBox="0 0 24 24" fill="none" xmlns="http://www.w3.org/2000/svg">
<path d="M24 11.998C24 14.6122 23.2368 16.9632 21.7104 19.0508C20.184 21.1385 18.213 22.5836 15.7974 23.3861C15.5161 23.4381 15.3101 23.4014 15.1795 23.2761C15.0488 23.1508 14.9835 22.9948 14.9835 22.8082V19.5127C14.9835 18.5022 14.7129 17.763 14.1716 17.2951C14.7649 17.2325 15.2988 17.1385 15.7734 17.0132C16.248 16.8879 16.7372 16.6846 17.2411 16.4033C17.745 16.122 18.167 15.7754 18.5069 15.3634C18.8469 14.9515 19.1228 14.4049 19.3348 13.7237C19.5467 13.0425 19.6534 12.2586 19.6547 11.3721C19.6547 10.1123 19.2435 9.03983 18.4209 8.15464C18.8062 7.2068 18.7649 6.14431 18.2969 4.96717C18.005 4.87385 17.5831 4.93118 17.0312 5.13914C16.4793 5.34711 16 5.5764 15.5934 5.82703L14.9995 6.20097C14.0303 5.93034 13.0305 5.79503 12 5.79503C10.9695 5.79503 9.96967 5.93034 9.0005 6.20097C8.83386 6.08632 8.61256 5.94568 8.33661 5.77904C8.06066 5.6124 7.62606 5.41176 7.03283 5.17714C6.43959 4.94251 5.99167 4.87252 5.68905 4.96717C5.23046 6.14431 5.1938 7.2068 5.57907 8.15464C4.75654 9.03983 4.34528 10.1123 4.34528 11.3721C4.34528 12.2573 4.45192 13.0385 4.66522 13.7157C4.87852 14.3929 5.15181 14.9395 5.48509 15.3554C5.81836 15.7714 6.23763 16.12 6.74288 16.4013C7.24813 16.6826 7.73738 16.8859 8.21063 17.0112C8.68389 17.1365 9.2178 17.2305 9.81236 17.2931C9.39643 17.6677 9.14114 18.2043 9.04649 18.9028C8.82786 19.0068 8.59323 19.0848 8.34261 19.1368C8.09198 19.1888 7.79537 19.2148 7.45276 19.2148C7.11015 19.2148 6.76887 19.1028 6.42893 18.8789C6.08898 18.6549 5.7997 18.3296 5.56107 17.903C5.36377 17.5697 5.11115 17.2991 4.8032 17.0912C4.49525 16.8832 4.23729 16.7585 4.02933 16.7172L3.71738 16.6712C3.49875 16.6712 3.34744 16.6946 3.26346 16.7412C3.17947 16.7879 3.15347 16.8479 3.18547 16.9212C3.21746 16.9945 3.26412 17.0672 3.32545 17.1391C3.38677 17.2111 3.45476 17.2738 3.52941 17.3271L3.63939 17.4051C3.86869 17.5091 4.09532 17.707 4.31928 17.999C4.54324 18.291 4.70722 18.5562 4.8112 18.7949L4.96717 19.1548C5.10315 19.5507 5.33245 19.8707 5.65506 20.1146C5.97767 20.3586 6.32628 20.5146 6.70088 20.5826C7.07549 20.6506 7.43743 20.6872 7.7867 20.6926C8.13598 20.6979 8.42526 20.6799 8.65456 20.6386L9.0145 20.5766C9.0145 20.9725 9.01716 21.4358 9.0225 21.9663C9.02783 22.4969 9.03049 22.7782 9.03049 22.8102C9.03049 22.9982 8.96251 23.1541 8.82653 23.2781C8.69055 23.4021 8.48259 23.4388 8.20263 23.3881C5.78704 22.5856 3.81603 21.1405 2.28962 19.0528C0.763206 16.9652 -1.82261e-08 14.6142 0 12C0 9.82303 0.536577 7.81536 1.60973 5.977C2.68289 4.13864 4.13864 2.68289 5.977 1.60973C7.81536 0.536577 9.82303 0 12 0C14.177 0 16.1846 0.536577 18.023 1.60973C19.8614 2.68289 21.3171 4.13864 22.3903 5.977C23.4634 7.81536 24 9.82303 24 12V11.998Z" fill="#444444"/>
</svg>
