<svg width="1029" height="793" viewBox="0 0 1029 793" fill="none" xmlns="http://www.w3.org/2000/svg">
<g opacity="0.5" filter="url(#filter0_f_422_2771)">
<path d="M351.002 215C374.056 244.094 427.575 301.18 457.216 296.77C486.858 292.36 514.578 255.119 524.733 237.05" stroke="#80E8FF" stroke-width="100"/>
</g>
<g filter="url(#filter1_f_422_2771)">
<path d="M653.043 429.701C676.097 458.795 550.399 236.605 579.098 245.981C668.054 275.043 674.881 239.352 685.036 221.283" stroke="#9180FF" stroke-width="100"/>
</g>
<g filter="url(#filter2_f_422_2771)">
<path d="M352.377 430.116C326.304 455.841 523.503 337.418 515.1 369.442C489.056 468.704 552.426 433.449 568.619 444.78" stroke="#FFCC80" stroke-width="100"/>
</g>
<g opacity="0.5" filter="url(#filter3_f_422_2771)">
<path d="M595.747 262.663C556.081 356.69 499.603 201.013 422.557 347.82" stroke="#D33D12" stroke-opacity="0.3" stroke-width="74"/>
</g>
<defs>
<filter id="filter0_f_422_2771" x="11.8145" y="-116.053" width="856.506" height="763.067" filterUnits="userSpaceOnUse" color-interpolation-filters="sRGB">
<feFlood flood-opacity="0" result="BackgroundImageFix"/>
<feBlend mode="normal" in="SourceGraphic" in2="BackgroundImageFix" result="shape"/>
<feGaussianBlur stdDeviation="150" result="effect1_foregroundBlur_422_2771"/>
</filter>
<filter id="filter1_f_422_2771" x="224.812" y="-104.31" width="803.812" height="886.64" filterUnits="userSpaceOnUse" color-interpolation-filters="sRGB">
<feFlood flood-opacity="0" result="BackgroundImageFix"/>
<feBlend mode="normal" in="SourceGraphic" in2="BackgroundImageFix" result="shape"/>
<feGaussianBlur stdDeviation="150" result="effect1_foregroundBlur_422_2771"/>
</filter>
<filter id="filter2_f_422_2771" x="0" y="13.8995" width="897.287" height="778.416" filterUnits="userSpaceOnUse" color-interpolation-filters="sRGB">
<feFlood flood-opacity="0" result="BackgroundImageFix"/>
<feBlend mode="normal" in="SourceGraphic" in2="BackgroundImageFix" result="shape"/>
<feGaussianBlur stdDeviation="150" result="effect1_foregroundBlur_422_2771"/>
</filter>
<filter id="filter3_f_422_2771" x="239.795" y="94.1077" width="540.043" height="420.906" filterUnits="userSpaceOnUse" color-interpolation-filters="sRGB">
<feFlood flood-opacity="0" result="BackgroundImageFix"/>
<feBlend mode="normal" in="SourceGraphic" in2="BackgroundImageFix" result="shape"/>
<feGaussianBlur stdDeviation="75" result="effect1_foregroundBlur_422_2771"/>
</filter>
</defs>
</svg>
