<svg width="54" height="68" viewBox="0 0 54 68" fill="none" xmlns="http://www.w3.org/2000/svg">
<path d="M22.9124 3.26418C22.6224 3.09129 22.2908 3 21.9531 3C21.6152 3 21.2837 3.09129 20.9937 3.26418C20.7545 3.45335 20.5931 3.7235 20.54 4.02345C20.487 4.3234 20.546 4.63233 20.7059 4.89182C26.6058 15.0883 27.853 28.9709 19.7945 36.6302C16.6941 34.03 14.2326 30.7546 12.5995 27.0561C9.6194 28.7078 7.14971 31.1428 5.45846 34.0965C3.7672 37.0503 2.91907 40.41 3.00608 43.8109C3.12772 46.8092 3.84901 49.7525 5.12751 52.4684C6.406 55.1842 8.21591 57.6168 10.4507 59.6242C12.6854 61.6315 15.2999 63.1723 18.1402 64.1563C20.9805 65.1398 23.9893 65.5469 26.9896 65.353C42.435 65.353 50.4454 55.7789 50.9731 43.8109C51.5964 29.4496 41.3797 11.7852 22.9124 3.26418Z" stroke="#411E94" stroke-width="5" stroke-linecap="round" stroke-linejoin="round"/>
</svg>
