<svg width="54" height="52" viewBox="0 0 54 52" fill="none" xmlns="http://www.w3.org/2000/svg">
<path d="M27 31.7409C34.9529 31.7409 41.4 25.307 41.4 17.3705C41.4 9.43388 34.9529 3 27 3C19.0471 3 12.6 9.43388 12.6 17.3705C12.6 25.307 19.0471 31.7409 27 31.7409Z" stroke="#411E94" stroke-width="5" stroke-linecap="round" stroke-linejoin="round"/>
<path d="M36.6 48.5065C44.5529 48.5065 51 42.0726 51 34.136C51 26.1995 44.5529 19.7656 36.6 19.7656C28.6471 19.7656 22.2 26.1995 22.2 34.136C22.2 42.0726 28.6471 48.5065 36.6 48.5065Z" stroke="#411E94" stroke-width="5" stroke-linecap="round" stroke-linejoin="round"/>
<path d="M17.4 48.5065C25.3529 48.5065 31.8 42.0726 31.8 34.136C31.8 26.1995 25.3529 19.7656 17.4 19.7656C9.4471 19.7656 3 26.1995 3 34.136C3 42.0726 9.4471 48.5065 17.4 48.5065Z" stroke="#411E94" stroke-width="5" stroke-linecap="round" stroke-linejoin="round"/>
</svg>
