<svg width="54" height="54" viewBox="0 0 54 54" fill="none" xmlns="http://www.w3.org/2000/svg">
<path d="M38.8539 3C46.0246 3 50.8052 7.8 50.8052 15V19.8M3 19.8V15C3 7.8 7.78052 3 14.9513 3H28.7431M50.8068 34.2V39C50.8068 46.2 46.0263 51 38.8556 51H25.6374M3 34.2V39C3 46.2 7.78052 51 14.9513 51M14.2323 20.424L26.9007 27.792L39.4734 20.4721M26.9026 40.8482V27.7682M23.9391 13.2961L16.2904 17.5682C14.5694 18.5282 13.1353 20.9522 13.1353 22.9442V31.0802C13.1353 33.0722 14.5455 35.4962 16.2904 36.4562L23.9391 40.7282C25.5645 41.6402 28.2416 41.6402 29.8909 40.7282L37.5397 36.4562C39.2607 35.4962 40.6949 33.0722 40.6949 31.0802V22.9442C40.6949 20.9522 39.2846 18.5282 37.5397 17.5682L29.8909 13.2961C28.2416 12.3601 25.5645 12.3601 23.9391 13.2961Z" stroke="#411E94" stroke-width="5" stroke-linecap="round" stroke-linejoin="round"/>
</svg>
