<svg width="49" height="66" viewBox="0 0 49 66" fill="none" xmlns="http://www.w3.org/2000/svg">
<path d="M20.8113 27.573L15.7881 22.5496L12.6905 25.6473L20.8113 33.7685L35.5041 19.075L32.4065 15.9773L20.8113 27.573Z" fill="#411E94"/>
<path d="M48.1947 24.0985C48.1947 10.7917 37.4079 0 24.0974 0C10.7912 0 0 10.7917 0 24.0985C0 33.3216 5.1897 41.3289 12.8023 45.3796L10.9533 65.7231L24.0974 56.96L37.2414 65.7231L35.3925 45.3796C39.2579 43.3297 42.4921 40.2656 44.7476 36.5163C47.0031 32.7669 48.1948 28.474 48.1947 24.0985ZM24.0974 43.8154C13.2075 43.8154 4.38134 34.9888 4.38134 24.0985C4.38134 13.2081 13.2075 4.38154 24.0974 4.38154C34.9872 4.38154 43.8134 13.2081 43.8134 24.0985C43.8134 34.9888 34.9872 43.8154 24.0974 43.8154Z" fill="#411E94"/>
</svg>
