<svg width="24" height="24" viewBox="0 0 24 24" fill="none" xmlns="http://www.w3.org/2000/svg">
<path d="M19.9764 0H4.03212C1.806 0 0 1.79802 0 4.0258V19.9641C0 22.1919 1.806 24 4.03212 24H19.9764C22.2026 24 24 22.1919 24 19.9641V4.0258C24 1.79805 22.2026 0 19.9764 0ZM8.98907 19.4891C8.98907 19.4901 8.98829 19.4909 8.9873 19.4909H5.99448C5.99349 19.4909 5.99271 19.4901 5.99271 19.4891V8.99088C5.99271 8.98989 5.99349 8.98911 5.99448 8.98911H8.9873C8.98829 8.98911 8.98907 8.98989 8.98907 8.99088V19.4891ZM7.4618 8.37084C6.55093 8.37084 5.81254 7.63246 5.81254 6.72159C5.81254 5.81073 6.55093 5.07234 7.4618 5.07234C8.37266 5.07234 9.11105 5.81073 9.11105 6.72159C9.11105 7.63246 8.37266 8.37084 7.4618 8.37084ZM19.52 19.4891C19.52 19.4901 19.5192 19.4909 19.5182 19.4909H16.4963C16.4953 19.4909 16.4945 19.4901 16.4945 19.4891V14.0946C16.4945 13.2503 15.8085 12.5516 14.9644 12.5692C14.1513 12.5863 13.4982 13.252 13.4982 14.0693V19.4891C13.4982 19.4901 13.4974 19.4909 13.4964 19.4909H10.5036C10.5026 19.4909 10.5018 19.4901 10.5018 19.4891V8.99088C10.5018 8.98989 10.5026 8.98911 10.5036 8.98911H13.4964C13.4974 8.98911 13.4982 8.98989 13.4982 8.99088V11.4244C13.4982 11.4263 13.5007 11.4268 13.5015 11.4251C14.2635 9.8943 15.0748 9.56819 16.134 9.56819C17.9992 9.56819 19.52 11.2473 19.52 13.3191V19.4891Z" fill="#444444"/>
</svg>
