<svg width="24" height="24" viewBox="0 0 24 24" fill="none" xmlns="http://www.w3.org/2000/svg">
<path d="M0 5C0 2.23858 2.23858 0 5 0H19C21.7614 0 24 2.23858 24 5V19C24 21.7614 21.7614 24 19 24H5C2.23858 24 0 21.7614 0 19V5Z" fill="#444444"/>
<path d="M8.10804 19.9998C7.5649 20.0051 7.02637 19.8998 6.52523 19.6904C6.02408 19.4809 5.5708 19.1716 5.19299 18.7814C4.81359 18.4023 4.51289 17.9519 4.30815 17.4562C4.10342 16.9604 3.9987 16.4291 4.00001 15.8928C4.00001 14.7793 4.42528 13.7465 5.2195 12.9765L7.2608 10.9363C7.57893 10.6192 8.08152 10.6192 8.37314 10.9363C8.69127 11.2544 8.69127 11.7581 8.37314 12.0497L6.33294 14.09C6.09586 14.3263 5.90815 14.6073 5.78071 14.9168C5.65328 15.2263 5.58867 15.5581 5.59064 15.8928C5.59064 16.5821 5.85575 17.1907 6.33294 17.6944C6.56906 17.9314 6.84994 18.119 7.15922 18.2465C7.46851 18.3739 7.80004 18.4386 8.13455 18.4367C8.79731 18.4367 9.43356 18.1716 9.93726 17.6944L12.5331 15.0985C13.0047 14.6224 13.2693 13.9792 13.2693 13.309C13.2693 12.6388 13.0047 11.9957 12.5331 11.5195C12.3156 11.3052 12.0659 11.1263 11.793 10.9893C11.6005 10.9005 11.4507 10.7393 11.3763 10.5408C11.3018 10.3422 11.3087 10.1224 11.3953 9.92884C11.5798 9.53117 12.057 9.3467 12.4547 9.53117C12.9053 9.74437 13.3295 10.0095 13.673 10.3806C14.0573 10.7626 14.3623 11.2168 14.5704 11.7171C14.7785 12.2174 14.8856 12.7539 14.8856 13.2958C14.8856 13.8376 14.7785 14.3741 14.5704 14.8744C14.3623 15.3747 14.0573 15.8289 13.673 16.2109L11.0772 18.8068C10.2776 19.5713 9.21431 19.9986 8.10804 19.9998Z" fill="white"/>
<path d="M11.8979 14.5672C11.7871 14.566 11.6782 14.5388 11.5798 14.4877C11.1291 14.2756 10.705 14.0105 10.3614 13.6404C9.97577 13.2589 9.66946 12.8047 9.46016 12.3042C9.25086 11.8037 9.14271 11.2667 9.14194 10.7242C9.14194 9.61181 9.56611 8.57787 10.3614 7.80905L12.9572 5.21315C13.3393 4.8287 13.7935 4.52359 14.2939 4.31539C14.7943 4.10719 15.3309 4 15.8729 4C16.4148 4 16.9514 4.10719 17.4518 4.31539C17.9522 4.52359 18.4064 4.8287 18.7885 5.21315C19.1724 5.5952 19.4771 6.04937 19.6851 6.54955C19.893 7.04973 20 7.58606 20 8.12774C20 8.66941 19.893 9.20574 19.6851 9.70592C19.4771 10.2061 19.1724 10.6603 18.7885 11.0423L16.7471 13.0837C16.4301 13.4018 15.9264 13.4018 15.6348 13.0837C15.3167 12.7655 15.3167 12.2618 15.6348 11.9702L17.675 9.92995C18.1463 9.45383 18.4107 8.81094 18.4107 8.14099C18.4107 7.47104 18.1463 6.82815 17.675 6.35203C17.1989 5.88071 16.556 5.61632 15.8861 5.61632C15.2162 5.61632 14.5733 5.88071 14.0972 6.35203L11.5014 8.94903C11.2642 9.18508 11.0764 9.46591 10.9488 9.77521C10.8212 10.0845 10.7563 10.4161 10.758 10.7507C10.758 11.44 11.0231 12.0497 11.5003 12.5535C11.7124 12.7655 11.9775 12.9511 12.2426 13.0837C12.6402 13.2693 12.8258 13.7465 12.6402 14.1441C12.5627 14.272 12.4539 14.378 12.324 14.452C12.1941 14.5261 12.0474 14.5657 11.8979 14.5672Z" fill="white"/>
</svg>
