<svg width="50" height="37" viewBox="0 0 50 37" fill="none" xmlns="http://www.w3.org/2000/svg">
<path d="M17.5454 34.56C17.4603 34.6453 16.779 35.072 15.5017 35.84C14.3095 36.5227 12.2232 36.864 9.24274 36.864C6.26229 36.864 4.09081 35.968 2.72832 34.176C1.36582 32.384 0.68457 30.1227 0.68457 27.392C0.68457 23.9787 1.15293 20.864 2.08965 18.048C3.11152 15.1467 4.43144 12.544 6.0494 10.24C7.66736 7.936 9.49821 5.97334 11.542 4.35201C13.6709 2.64534 15.8849 1.19467 18.1841 0L23.6767 7.424C20.2704 9.89867 17.9712 12.3733 16.779 14.848C15.672 17.3227 15.1185 19.712 15.1185 22.016C15.1185 24.4907 15.5017 26.7947 16.2681 28.928C17.0345 31.0613 17.4603 32.9387 17.5454 34.56ZM43.0922 34.56C43.0071 34.6453 42.3258 35.072 41.0485 35.84C39.8563 36.5227 37.77 36.864 34.7895 36.864C31.8091 36.864 29.595 35.968 28.1474 34.176C26.7849 32.384 26.1036 30.1227 26.1036 27.392C26.1036 23.9787 26.572 20.864 27.5087 18.048C28.5306 15.1467 29.8505 12.544 31.4684 10.24C33.1716 7.936 35.045 5.97334 37.0887 4.35201C39.2176 2.64534 41.4317 1.19467 43.7309 0L49.0957 7.424C45.7746 9.89867 43.518 12.3733 42.3258 14.848C41.2188 17.3227 40.6653 19.712 40.6653 22.016C40.6653 24.4907 41.0485 26.7947 41.8149 28.928C42.5813 31.0613 43.0071 32.9387 43.0922 34.56Z" fill="url(#paint0_linear_323_4964)"/>
<defs>
<linearGradient id="paint0_linear_323_4964" x1="53.5744" y1="9.5" x2="-70.3389" y2="96.757" gradientUnits="userSpaceOnUse">
<stop stop-color="#89C4C9"/>
<stop offset="1" stop-color="#411E94"/>
</linearGradient>
</defs>
</svg>
