<svg width="50" height="37" viewBox="0 0 50 37" fill="none" xmlns="http://www.w3.org/2000/svg">
<path d="M32.2553 2.30401C32.3405 2.21868 33.0217 1.79201 34.2991 1.02401C35.4913 0.341342 37.5776 6.61855e-06 40.558 6.87966e-06C43.5385 7.14076e-06 45.71 0.896007 47.0725 2.68801C48.435 4.48001 49.1162 6.74134 49.1162 9.47201C49.1162 12.8853 48.6479 16 47.7111 18.816C46.6893 21.7173 45.3693 24.32 43.7514 26.624C42.1334 28.928 40.3026 30.8907 38.2588 32.512C36.1299 34.2187 33.9159 35.6693 31.6167 36.864L26.1241 29.44C29.5303 26.9653 31.8296 24.4907 33.0217 22.016C34.1288 19.5413 34.6823 17.152 34.6823 14.848C34.6823 12.3733 34.2991 10.0693 33.5327 7.93601C32.7663 5.80267 32.3405 3.92534 32.2553 2.30401ZM6.70856 2.304C6.79372 2.21867 7.47497 1.79201 8.75231 1.02401C9.94449 0.341339 12.0308 4.38053e-06 15.0113 4.64163e-06C17.9917 4.90274e-06 20.2058 0.896005 21.6534 2.688C23.0159 4.48 23.6972 6.74134 23.6972 9.47201C23.6972 12.8853 23.2288 16 22.2921 18.816C21.2702 21.7173 19.9503 24.32 18.3323 26.624C16.6292 28.928 14.7558 30.8907 12.712 32.512C10.5831 34.2187 8.3691 35.6693 6.06989 36.864L0.70506 29.44C4.02614 26.9653 6.28278 24.4907 7.47497 22.016C8.582 19.5413 9.13551 17.152 9.13551 14.848C9.13551 12.3733 8.7523 10.0693 7.9859 7.936C7.2195 5.80267 6.79372 3.92534 6.70856 2.304Z" fill="url(#paint0_linear_323_4965)"/>
<defs>
<linearGradient id="paint0_linear_323_4965" x1="-3.7736" y1="27.364" x2="121.121" y2="-58.2574" gradientUnits="userSpaceOnUse">
<stop stop-color="#89C4C9"/>
<stop offset="1" stop-color="#411E94"/>
</linearGradient>
</defs>
</svg>
